<mxfile host="Electron" modified="2023-04-13T14:23:18.586Z" agent="Mozilla/5.0 (Windows NT 10.0; Win64; x64) AppleWebKit/537.36 (KHTML, like Gecko) draw.io/21.1.2 Chrome/106.0.5249.199 Electron/21.4.3 Safari/537.36" etag="lzupHQUaE31NFaX0ugfE" version="21.1.2" type="device">
  <diagram name="Page-1" id="58cdce13-f638-feb5-8d6f-7d28b1aa9fa0">
    <mxGraphModel dx="2607" dy="1535" grid="1" gridSize="10" guides="1" tooltips="1" connect="1" arrows="1" fold="1" page="1" pageScale="1" pageWidth="827" pageHeight="1169" background="none" math="0" shadow="0">
      <root>
        <mxCell id="0" />
        <mxCell id="1" parent="0" />
        <mxCell id="2a3bc250acf0617d-7" value="Speed Sensor Component" style="swimlane;whiteSpace=wrap;html=1;rounded=1;shadow=0;comic=0;labelBackgroundColor=none;strokeWidth=1;fontFamily=Verdana;fontSize=12;align=center;" parent="1" vertex="1">
          <mxGeometry x="50" y="20" width="760" height="230" as="geometry">
            <mxRectangle x="85" y="10" width="200" height="30" as="alternateBounds" />
          </mxGeometry>
        </mxCell>
        <mxCell id="3cde6dad864a17aa-10" style="edgeStyle=elbowEdgeStyle;html=1;labelBackgroundColor=none;endArrow=open;endSize=8;strokeColor=#ff0000;fontFamily=Verdana;fontSize=12;align=left;" parent="2a3bc250acf0617d-7" source="382b91b5511bd0f7-8" target="3cde6dad864a17aa-1" edge="1">
          <mxGeometry relative="1" as="geometry" />
        </mxCell>
        <mxCell id="382b91b5511bd0f7-8" value="SpeedSensor_GetRead()" style="rounded=1;whiteSpace=wrap;html=1;arcSize=24;fillColor=#ffffc0;strokeColor=#ff0000;shadow=0;comic=0;labelBackgroundColor=none;fontFamily=Verdana;fontSize=12;fontColor=#000000;align=center;" parent="2a3bc250acf0617d-7" vertex="1">
          <mxGeometry x="60" y="65" width="150" height="60" as="geometry" />
        </mxCell>
        <mxCell id="24f968d109e7d6b4-3" value="" style="ellipse;html=1;shape=endState;fillColor=#000000;strokeColor=#ff0000;rounded=1;shadow=0;comic=0;labelBackgroundColor=none;fontFamily=Verdana;fontSize=12;fontColor=#000000;align=center;" parent="2a3bc250acf0617d-7" vertex="1">
          <mxGeometry x="480" y="170" width="30" height="30" as="geometry" />
        </mxCell>
        <mxCell id="3cde6dad864a17aa-9" style="edgeStyle=elbowEdgeStyle;html=1;labelBackgroundColor=none;endArrow=open;endSize=8;strokeColor=#ff0000;fontFamily=Verdana;fontSize=12;align=left;" parent="2a3bc250acf0617d-7" source="2a3bc250acf0617d-3" target="382b91b5511bd0f7-8" edge="1">
          <mxGeometry relative="1" as="geometry" />
        </mxCell>
        <mxCell id="2a3bc250acf0617d-3" value="" style="ellipse;html=1;shape=startState;fillColor=#000000;strokeColor=#ff0000;rounded=1;shadow=0;comic=0;labelBackgroundColor=none;fontFamily=Verdana;fontSize=12;fontColor=#000000;align=center;direction=south;" parent="2a3bc250acf0617d-7" vertex="1">
          <mxGeometry y="80" width="30" height="30" as="geometry" />
        </mxCell>
        <mxCell id="3cde6dad864a17aa-11" style="edgeStyle=elbowEdgeStyle;html=1;labelBackgroundColor=none;endArrow=open;endSize=8;strokeColor=#ff0000;fontFamily=Verdana;fontSize=12;align=left;entryX=0;entryY=0.5;entryDx=0;entryDy=0;exitX=1;exitY=0.5;exitDx=0;exitDy=0;" parent="2a3bc250acf0617d-7" source="_AYD7b4ZwWidKNxs3BEM-91" target="_AYD7b4ZwWidKNxs3BEM-18" edge="1">
          <mxGeometry relative="1" as="geometry">
            <mxPoint x="650" y="95" as="sourcePoint" />
            <mxPoint x="479.9999999999998" y="95" as="targetPoint" />
          </mxGeometry>
        </mxCell>
        <mxCell id="_AYD7b4ZwWidKNxs3BEM-8" value="Queue State&lt;br&gt;Moving/Stopped" style="edgeLabel;html=1;align=center;verticalAlign=middle;resizable=0;points=[];" vertex="1" connectable="0" parent="3cde6dad864a17aa-11">
          <mxGeometry x="-0.2707" relative="1" as="geometry">
            <mxPoint x="6" as="offset" />
          </mxGeometry>
        </mxCell>
        <mxCell id="3cde6dad864a17aa-1" value="ADC_GetAbalogRead()" style="rounded=1;whiteSpace=wrap;html=1;arcSize=24;fillColor=#ffffc0;strokeColor=#ff0000;shadow=0;comic=0;labelBackgroundColor=none;fontFamily=Verdana;fontSize=12;fontColor=#000000;align=center;" parent="2a3bc250acf0617d-7" vertex="1">
          <mxGeometry x="240" y="65" width="140" height="60" as="geometry" />
        </mxCell>
        <mxCell id="_AYD7b4ZwWidKNxs3BEM-18" value="Car&lt;br&gt;State&lt;br&gt;Variable" style="ellipse;shape=umlEntity;whiteSpace=wrap;html=1;strokeColor=#FF0000;" vertex="1" parent="2a3bc250acf0617d-7">
          <mxGeometry x="680" y="65" width="65" height="65" as="geometry" />
        </mxCell>
        <mxCell id="_AYD7b4ZwWidKNxs3BEM-25" style="edgeStyle=elbowEdgeStyle;rounded=1;orthogonalLoop=1;jettySize=auto;html=1;strokeColor=#FF0000;exitX=0.5;exitY=1;exitDx=0;exitDy=0;elbow=vertical;endArrow=open;endFill=0;endSize=8;entryX=0.5;entryY=0;entryDx=0;entryDy=0;" edge="1" parent="2a3bc250acf0617d-7" source="_AYD7b4ZwWidKNxs3BEM-91" target="24f968d109e7d6b4-3">
          <mxGeometry relative="1" as="geometry">
            <mxPoint x="270" y="150" as="targetPoint" />
            <mxPoint x="310" y="140" as="sourcePoint" />
            <Array as="points">
              <mxPoint x="500" y="150" />
            </Array>
          </mxGeometry>
        </mxCell>
        <mxCell id="_AYD7b4ZwWidKNxs3BEM-29" value="End" style="edgeLabel;html=1;align=center;verticalAlign=middle;resizable=0;points=[];" vertex="1" connectable="0" parent="_AYD7b4ZwWidKNxs3BEM-25">
          <mxGeometry x="0.0684" relative="1" as="geometry">
            <mxPoint y="-4" as="offset" />
          </mxGeometry>
        </mxCell>
        <mxCell id="_AYD7b4ZwWidKNxs3BEM-91" value="Evaluate CarState()" style="rounded=1;whiteSpace=wrap;html=1;arcSize=24;fillColor=#ffffc0;strokeColor=#ff0000;shadow=0;comic=0;labelBackgroundColor=none;fontFamily=Verdana;fontSize=12;fontColor=#000000;align=center;" vertex="1" parent="2a3bc250acf0617d-7">
          <mxGeometry x="430" y="65" width="130" height="60" as="geometry" />
        </mxCell>
        <mxCell id="_AYD7b4ZwWidKNxs3BEM-94" style="edgeStyle=elbowEdgeStyle;html=1;labelBackgroundColor=none;endArrow=open;endSize=8;strokeColor=#ff0000;fontFamily=Verdana;fontSize=12;align=left;exitX=1;exitY=0.5;exitDx=0;exitDy=0;entryX=0;entryY=0.5;entryDx=0;entryDy=0;" edge="1" parent="2a3bc250acf0617d-7" source="3cde6dad864a17aa-1" target="_AYD7b4ZwWidKNxs3BEM-91">
          <mxGeometry relative="1" as="geometry">
            <mxPoint x="390" y="94.83" as="sourcePoint" />
            <mxPoint x="420" y="94.83" as="targetPoint" />
          </mxGeometry>
        </mxCell>
        <mxCell id="_AYD7b4ZwWidKNxs3BEM-30" value="Door Sensor Component" style="swimlane;whiteSpace=wrap;html=1;rounded=1;shadow=0;comic=0;labelBackgroundColor=none;strokeWidth=1;fontFamily=Verdana;fontSize=12;align=center;" vertex="1" parent="1">
          <mxGeometry x="130" y="260" width="530" height="230" as="geometry">
            <mxRectangle x="85" y="10" width="200" height="30" as="alternateBounds" />
          </mxGeometry>
        </mxCell>
        <mxCell id="_AYD7b4ZwWidKNxs3BEM-31" style="edgeStyle=elbowEdgeStyle;html=1;labelBackgroundColor=none;endArrow=open;endSize=8;strokeColor=#ff0000;fontFamily=Verdana;fontSize=12;align=left;" edge="1" parent="_AYD7b4ZwWidKNxs3BEM-30" source="_AYD7b4ZwWidKNxs3BEM-32" target="_AYD7b4ZwWidKNxs3BEM-38">
          <mxGeometry relative="1" as="geometry" />
        </mxCell>
        <mxCell id="_AYD7b4ZwWidKNxs3BEM-32" value="DoorSensor_GetRead()" style="rounded=1;whiteSpace=wrap;html=1;arcSize=24;fillColor=#ffffc0;strokeColor=#ff0000;shadow=0;comic=0;labelBackgroundColor=none;fontFamily=Verdana;fontSize=12;fontColor=#000000;align=center;" vertex="1" parent="_AYD7b4ZwWidKNxs3BEM-30">
          <mxGeometry x="60" y="65" width="150" height="60" as="geometry" />
        </mxCell>
        <mxCell id="_AYD7b4ZwWidKNxs3BEM-33" value="" style="ellipse;html=1;shape=endState;fillColor=#000000;strokeColor=#ff0000;rounded=1;shadow=0;comic=0;labelBackgroundColor=none;fontFamily=Verdana;fontSize=12;fontColor=#000000;align=center;" vertex="1" parent="_AYD7b4ZwWidKNxs3BEM-30">
          <mxGeometry x="285" y="190" width="30" height="30" as="geometry" />
        </mxCell>
        <mxCell id="_AYD7b4ZwWidKNxs3BEM-34" style="edgeStyle=elbowEdgeStyle;html=1;labelBackgroundColor=none;endArrow=open;endSize=8;strokeColor=#ff0000;fontFamily=Verdana;fontSize=12;align=left;" edge="1" parent="_AYD7b4ZwWidKNxs3BEM-30" source="_AYD7b4ZwWidKNxs3BEM-35" target="_AYD7b4ZwWidKNxs3BEM-32">
          <mxGeometry relative="1" as="geometry" />
        </mxCell>
        <mxCell id="_AYD7b4ZwWidKNxs3BEM-35" value="" style="ellipse;html=1;shape=startState;fillColor=#000000;strokeColor=#ff0000;rounded=1;shadow=0;comic=0;labelBackgroundColor=none;fontFamily=Verdana;fontSize=12;fontColor=#000000;align=center;direction=south;" vertex="1" parent="_AYD7b4ZwWidKNxs3BEM-30">
          <mxGeometry y="80" width="30" height="30" as="geometry" />
        </mxCell>
        <mxCell id="_AYD7b4ZwWidKNxs3BEM-36" style="edgeStyle=elbowEdgeStyle;html=1;labelBackgroundColor=none;endArrow=open;endSize=8;strokeColor=#ff0000;fontFamily=Verdana;fontSize=12;align=left;entryX=0;entryY=0.5;entryDx=0;entryDy=0;" edge="1" parent="_AYD7b4ZwWidKNxs3BEM-30" source="_AYD7b4ZwWidKNxs3BEM-38" target="_AYD7b4ZwWidKNxs3BEM-39">
          <mxGeometry relative="1" as="geometry">
            <mxPoint x="479.9999999999998" y="95" as="targetPoint" />
          </mxGeometry>
        </mxCell>
        <mxCell id="_AYD7b4ZwWidKNxs3BEM-37" value="Queue&lt;br&gt;ON/OFF" style="edgeLabel;html=1;align=center;verticalAlign=middle;resizable=0;points=[];" vertex="1" connectable="0" parent="_AYD7b4ZwWidKNxs3BEM-36">
          <mxGeometry x="-0.2707" relative="1" as="geometry">
            <mxPoint x="6" as="offset" />
          </mxGeometry>
        </mxCell>
        <mxCell id="_AYD7b4ZwWidKNxs3BEM-38" value="GPIO_GetPin()" style="rounded=1;whiteSpace=wrap;html=1;arcSize=24;fillColor=#ffffc0;strokeColor=#ff0000;shadow=0;comic=0;labelBackgroundColor=none;fontFamily=Verdana;fontSize=12;fontColor=#000000;align=center;" vertex="1" parent="_AYD7b4ZwWidKNxs3BEM-30">
          <mxGeometry x="240" y="65" width="120" height="60" as="geometry" />
        </mxCell>
        <mxCell id="_AYD7b4ZwWidKNxs3BEM-39" value="Door&lt;br&gt;State&lt;br&gt;Variable" style="ellipse;shape=umlEntity;whiteSpace=wrap;html=1;strokeColor=#FF0000;" vertex="1" parent="_AYD7b4ZwWidKNxs3BEM-30">
          <mxGeometry x="452.5" y="62.5" width="65" height="65" as="geometry" />
        </mxCell>
        <mxCell id="_AYD7b4ZwWidKNxs3BEM-43" style="edgeStyle=elbowEdgeStyle;rounded=1;orthogonalLoop=1;jettySize=auto;html=1;strokeColor=#FF0000;elbow=vertical;entryX=0.5;entryY=0;entryDx=0;entryDy=0;endArrow=open;endFill=0;endSize=8;exitX=0.5;exitY=1;exitDx=0;exitDy=0;" edge="1" parent="_AYD7b4ZwWidKNxs3BEM-30" source="_AYD7b4ZwWidKNxs3BEM-38" target="_AYD7b4ZwWidKNxs3BEM-33">
          <mxGeometry relative="1" as="geometry">
            <mxPoint x="520" y="205" as="targetPoint" />
            <mxPoint x="350" y="140" as="sourcePoint" />
            <Array as="points">
              <mxPoint x="360" y="170" />
            </Array>
          </mxGeometry>
        </mxCell>
        <mxCell id="_AYD7b4ZwWidKNxs3BEM-44" value="End" style="edgeLabel;html=1;align=center;verticalAlign=middle;resizable=0;points=[];" vertex="1" connectable="0" parent="_AYD7b4ZwWidKNxs3BEM-43">
          <mxGeometry x="0.0684" relative="1" as="geometry">
            <mxPoint as="offset" />
          </mxGeometry>
        </mxCell>
        <mxCell id="_AYD7b4ZwWidKNxs3BEM-45" value="Switch Component" style="swimlane;whiteSpace=wrap;html=1;rounded=1;shadow=0;comic=0;labelBackgroundColor=none;strokeWidth=1;fontFamily=Verdana;fontSize=12;align=center;" vertex="1" parent="1">
          <mxGeometry x="125" y="520" width="570" height="275" as="geometry">
            <mxRectangle x="85" y="10" width="200" height="30" as="alternateBounds" />
          </mxGeometry>
        </mxCell>
        <mxCell id="_AYD7b4ZwWidKNxs3BEM-46" style="edgeStyle=elbowEdgeStyle;html=1;labelBackgroundColor=none;endArrow=open;endSize=8;strokeColor=#ff0000;fontFamily=Verdana;fontSize=12;align=left;" edge="1" parent="_AYD7b4ZwWidKNxs3BEM-45" source="_AYD7b4ZwWidKNxs3BEM-47" target="_AYD7b4ZwWidKNxs3BEM-53">
          <mxGeometry relative="1" as="geometry" />
        </mxCell>
        <mxCell id="_AYD7b4ZwWidKNxs3BEM-47" value="Switch_GetRead()" style="rounded=1;whiteSpace=wrap;html=1;arcSize=24;fillColor=#ffffc0;strokeColor=#ff0000;shadow=0;comic=0;labelBackgroundColor=none;fontFamily=Verdana;fontSize=12;fontColor=#000000;align=center;" vertex="1" parent="_AYD7b4ZwWidKNxs3BEM-45">
          <mxGeometry x="60" y="65" width="130" height="60" as="geometry" />
        </mxCell>
        <mxCell id="_AYD7b4ZwWidKNxs3BEM-48" value="" style="ellipse;html=1;shape=endState;fillColor=#000000;strokeColor=#ff0000;rounded=1;shadow=0;comic=0;labelBackgroundColor=none;fontFamily=Verdana;fontSize=12;fontColor=#000000;align=center;" vertex="1" parent="_AYD7b4ZwWidKNxs3BEM-45">
          <mxGeometry x="265" y="180" width="30" height="30" as="geometry" />
        </mxCell>
        <mxCell id="_AYD7b4ZwWidKNxs3BEM-49" style="edgeStyle=elbowEdgeStyle;html=1;labelBackgroundColor=none;endArrow=open;endSize=8;strokeColor=#ff0000;fontFamily=Verdana;fontSize=12;align=left;" edge="1" parent="_AYD7b4ZwWidKNxs3BEM-45" source="_AYD7b4ZwWidKNxs3BEM-50" target="_AYD7b4ZwWidKNxs3BEM-47">
          <mxGeometry relative="1" as="geometry" />
        </mxCell>
        <mxCell id="_AYD7b4ZwWidKNxs3BEM-50" value="" style="ellipse;html=1;shape=startState;fillColor=#000000;strokeColor=#ff0000;rounded=1;shadow=0;comic=0;labelBackgroundColor=none;fontFamily=Verdana;fontSize=12;fontColor=#000000;align=center;direction=south;" vertex="1" parent="_AYD7b4ZwWidKNxs3BEM-45">
          <mxGeometry y="80" width="30" height="30" as="geometry" />
        </mxCell>
        <mxCell id="_AYD7b4ZwWidKNxs3BEM-51" style="edgeStyle=elbowEdgeStyle;html=1;labelBackgroundColor=none;endArrow=open;endSize=8;strokeColor=#ff0000;fontFamily=Verdana;fontSize=12;align=left;entryX=0;entryY=0.5;entryDx=0;entryDy=0;" edge="1" parent="_AYD7b4ZwWidKNxs3BEM-45" source="_AYD7b4ZwWidKNxs3BEM-53" target="_AYD7b4ZwWidKNxs3BEM-54">
          <mxGeometry relative="1" as="geometry">
            <mxPoint x="479.9999999999998" y="95" as="targetPoint" />
          </mxGeometry>
        </mxCell>
        <mxCell id="_AYD7b4ZwWidKNxs3BEM-52" value="Queue&lt;br&gt;ON/OFF" style="edgeLabel;html=1;align=center;verticalAlign=middle;resizable=0;points=[];" vertex="1" connectable="0" parent="_AYD7b4ZwWidKNxs3BEM-51">
          <mxGeometry x="-0.2707" relative="1" as="geometry">
            <mxPoint x="6" as="offset" />
          </mxGeometry>
        </mxCell>
        <mxCell id="_AYD7b4ZwWidKNxs3BEM-53" value="GPIO_GetPin()" style="rounded=1;whiteSpace=wrap;html=1;arcSize=24;fillColor=#ffffc0;strokeColor=#ff0000;shadow=0;comic=0;labelBackgroundColor=none;fontFamily=Verdana;fontSize=12;fontColor=#000000;align=center;" vertex="1" parent="_AYD7b4ZwWidKNxs3BEM-45">
          <mxGeometry x="220" y="65" width="120" height="60" as="geometry" />
        </mxCell>
        <mxCell id="_AYD7b4ZwWidKNxs3BEM-54" value="Switch&lt;br&gt;State&lt;br&gt;Variable" style="ellipse;shape=umlEntity;whiteSpace=wrap;html=1;strokeColor=#FF0000;" vertex="1" parent="_AYD7b4ZwWidKNxs3BEM-45">
          <mxGeometry x="452.5" y="62.5" width="65" height="65" as="geometry" />
        </mxCell>
        <mxCell id="_AYD7b4ZwWidKNxs3BEM-58" style="edgeStyle=elbowEdgeStyle;rounded=1;orthogonalLoop=1;jettySize=auto;html=1;strokeColor=#FF0000;elbow=vertical;endArrow=open;endFill=0;endSize=8;exitX=0.5;exitY=1;exitDx=0;exitDy=0;entryX=0.5;entryY=0;entryDx=0;entryDy=0;" edge="1" parent="_AYD7b4ZwWidKNxs3BEM-45" source="_AYD7b4ZwWidKNxs3BEM-53" target="_AYD7b4ZwWidKNxs3BEM-48">
          <mxGeometry relative="1" as="geometry">
            <mxPoint x="480" y="210" as="targetPoint" />
            <mxPoint x="430" y="100" as="sourcePoint" />
            <Array as="points">
              <mxPoint x="310" y="160" />
              <mxPoint x="520" y="150" />
              <mxPoint x="580" y="205" />
            </Array>
          </mxGeometry>
        </mxCell>
        <mxCell id="_AYD7b4ZwWidKNxs3BEM-59" value="End" style="edgeLabel;html=1;align=center;verticalAlign=middle;resizable=0;points=[];" vertex="1" connectable="0" parent="_AYD7b4ZwWidKNxs3BEM-58">
          <mxGeometry x="0.0684" relative="1" as="geometry">
            <mxPoint as="offset" />
          </mxGeometry>
        </mxCell>
        <mxCell id="_AYD7b4ZwWidKNxs3BEM-60" value="Buzzer Component (5ms)" style="swimlane;whiteSpace=wrap;html=1;rounded=1;shadow=0;comic=0;labelBackgroundColor=none;strokeWidth=1;fontFamily=Verdana;fontSize=12;align=center;" vertex="1" parent="1">
          <mxGeometry x="135" y="2460" width="520" height="230" as="geometry">
            <mxRectangle x="85" y="10" width="200" height="30" as="alternateBounds" />
          </mxGeometry>
        </mxCell>
        <mxCell id="_AYD7b4ZwWidKNxs3BEM-61" style="edgeStyle=elbowEdgeStyle;html=1;labelBackgroundColor=none;endArrow=open;endSize=8;strokeColor=#ff0000;fontFamily=Verdana;fontSize=12;align=left;" edge="1" parent="_AYD7b4ZwWidKNxs3BEM-60" source="_AYD7b4ZwWidKNxs3BEM-62" target="_AYD7b4ZwWidKNxs3BEM-68">
          <mxGeometry relative="1" as="geometry" />
        </mxCell>
        <mxCell id="_AYD7b4ZwWidKNxs3BEM-77" value="Fetched&lt;br&gt;State" style="edgeLabel;html=1;align=center;verticalAlign=middle;resizable=0;points=[];" vertex="1" connectable="0" parent="_AYD7b4ZwWidKNxs3BEM-61">
          <mxGeometry x="-0.2222" y="2" relative="1" as="geometry">
            <mxPoint x="5" y="2" as="offset" />
          </mxGeometry>
        </mxCell>
        <mxCell id="_AYD7b4ZwWidKNxs3BEM-62" value="Fetch Current State" style="rounded=1;whiteSpace=wrap;html=1;arcSize=24;fillColor=#ffffc0;strokeColor=#ff0000;shadow=0;comic=0;labelBackgroundColor=none;fontFamily=Verdana;fontSize=12;fontColor=#000000;align=center;" vertex="1" parent="_AYD7b4ZwWidKNxs3BEM-60">
          <mxGeometry x="60" y="40" width="110" height="60" as="geometry" />
        </mxCell>
        <mxCell id="_AYD7b4ZwWidKNxs3BEM-63" value="" style="ellipse;html=1;shape=endState;fillColor=#000000;strokeColor=#ff0000;rounded=1;shadow=0;comic=0;labelBackgroundColor=none;fontFamily=Verdana;fontSize=12;fontColor=#000000;align=center;" vertex="1" parent="_AYD7b4ZwWidKNxs3BEM-60">
          <mxGeometry x="480" y="55" width="30" height="30" as="geometry" />
        </mxCell>
        <mxCell id="_AYD7b4ZwWidKNxs3BEM-64" style="edgeStyle=elbowEdgeStyle;html=1;labelBackgroundColor=none;endArrow=open;endSize=8;strokeColor=#ff0000;fontFamily=Verdana;fontSize=12;align=left;" edge="1" parent="_AYD7b4ZwWidKNxs3BEM-60" source="_AYD7b4ZwWidKNxs3BEM-65" target="_AYD7b4ZwWidKNxs3BEM-62">
          <mxGeometry relative="1" as="geometry" />
        </mxCell>
        <mxCell id="_AYD7b4ZwWidKNxs3BEM-65" value="" style="ellipse;html=1;shape=startState;fillColor=#000000;strokeColor=#ff0000;rounded=1;shadow=0;comic=0;labelBackgroundColor=none;fontFamily=Verdana;fontSize=12;fontColor=#000000;align=center;direction=south;" vertex="1" parent="_AYD7b4ZwWidKNxs3BEM-60">
          <mxGeometry y="55" width="30" height="30" as="geometry" />
        </mxCell>
        <mxCell id="_AYD7b4ZwWidKNxs3BEM-66" style="edgeStyle=elbowEdgeStyle;html=1;labelBackgroundColor=none;endArrow=open;endSize=8;strokeColor=#ff0000;fontFamily=Verdana;fontSize=12;align=left;entryX=0;entryY=0.5;entryDx=0;entryDy=0;" edge="1" parent="_AYD7b4ZwWidKNxs3BEM-60" source="_AYD7b4ZwWidKNxs3BEM-68" target="_AYD7b4ZwWidKNxs3BEM-63">
          <mxGeometry relative="1" as="geometry">
            <mxPoint x="452.5" y="70" as="targetPoint" />
          </mxGeometry>
        </mxCell>
        <mxCell id="_AYD7b4ZwWidKNxs3BEM-68" value="GPIO_SetPin()" style="rounded=1;whiteSpace=wrap;html=1;arcSize=24;fillColor=#ffffc0;strokeColor=#ff0000;shadow=0;comic=0;labelBackgroundColor=none;fontFamily=Verdana;fontSize=12;fontColor=#000000;align=center;" vertex="1" parent="_AYD7b4ZwWidKNxs3BEM-60">
          <mxGeometry x="260" y="40" width="120" height="60" as="geometry" />
        </mxCell>
        <mxCell id="_AYD7b4ZwWidKNxs3BEM-75" value="Buzzer&lt;br&gt;State&lt;br&gt;Variable" style="ellipse;shape=umlEntity;whiteSpace=wrap;html=1;strokeColor=#FF0000;" vertex="1" parent="_AYD7b4ZwWidKNxs3BEM-60">
          <mxGeometry x="60" y="160" width="65" height="65" as="geometry" />
        </mxCell>
        <mxCell id="_AYD7b4ZwWidKNxs3BEM-76" style="edgeStyle=elbowEdgeStyle;html=1;labelBackgroundColor=none;endArrow=open;endSize=8;strokeColor=#ff0000;fontFamily=Verdana;fontSize=12;align=left;exitX=0.5;exitY=1;exitDx=0;exitDy=0;entryX=0.5;entryY=0;entryDx=0;entryDy=0;elbow=vertical;" edge="1" parent="_AYD7b4ZwWidKNxs3BEM-60" source="_AYD7b4ZwWidKNxs3BEM-62" target="_AYD7b4ZwWidKNxs3BEM-75">
          <mxGeometry relative="1" as="geometry">
            <mxPoint x="120" y="150" as="sourcePoint" />
            <mxPoint x="170" y="150" as="targetPoint" />
            <Array as="points">
              <mxPoint x="100" y="140" />
            </Array>
          </mxGeometry>
        </mxCell>
        <mxCell id="_AYD7b4ZwWidKNxs3BEM-89" value="Fetch" style="edgeLabel;html=1;align=center;verticalAlign=middle;resizable=0;points=[];" vertex="1" connectable="0" parent="_AYD7b4ZwWidKNxs3BEM-76">
          <mxGeometry x="-0.4027" relative="1" as="geometry">
            <mxPoint as="offset" />
          </mxGeometry>
        </mxCell>
        <mxCell id="_AYD7b4ZwWidKNxs3BEM-78" value="Lights Component (5ms)" style="swimlane;whiteSpace=wrap;html=1;rounded=1;shadow=0;comic=0;labelBackgroundColor=none;strokeWidth=1;fontFamily=Verdana;fontSize=12;align=center;" vertex="1" parent="1">
          <mxGeometry x="135" y="2710" width="520" height="230" as="geometry">
            <mxRectangle x="85" y="10" width="200" height="30" as="alternateBounds" />
          </mxGeometry>
        </mxCell>
        <mxCell id="_AYD7b4ZwWidKNxs3BEM-79" style="edgeStyle=elbowEdgeStyle;html=1;labelBackgroundColor=none;endArrow=open;endSize=8;strokeColor=#ff0000;fontFamily=Verdana;fontSize=12;align=left;" edge="1" parent="_AYD7b4ZwWidKNxs3BEM-78" source="_AYD7b4ZwWidKNxs3BEM-81" target="_AYD7b4ZwWidKNxs3BEM-86">
          <mxGeometry relative="1" as="geometry" />
        </mxCell>
        <mxCell id="_AYD7b4ZwWidKNxs3BEM-80" value="Fetched&lt;br&gt;State" style="edgeLabel;html=1;align=center;verticalAlign=middle;resizable=0;points=[];" vertex="1" connectable="0" parent="_AYD7b4ZwWidKNxs3BEM-79">
          <mxGeometry x="-0.2222" y="2" relative="1" as="geometry">
            <mxPoint x="5" y="2" as="offset" />
          </mxGeometry>
        </mxCell>
        <mxCell id="_AYD7b4ZwWidKNxs3BEM-81" value="Fetch Current State" style="rounded=1;whiteSpace=wrap;html=1;arcSize=24;fillColor=#ffffc0;strokeColor=#ff0000;shadow=0;comic=0;labelBackgroundColor=none;fontFamily=Verdana;fontSize=12;fontColor=#000000;align=center;" vertex="1" parent="_AYD7b4ZwWidKNxs3BEM-78">
          <mxGeometry x="60" y="50" width="110" height="60" as="geometry" />
        </mxCell>
        <mxCell id="_AYD7b4ZwWidKNxs3BEM-82" value="" style="ellipse;html=1;shape=endState;fillColor=#000000;strokeColor=#ff0000;rounded=1;shadow=0;comic=0;labelBackgroundColor=none;fontFamily=Verdana;fontSize=12;fontColor=#000000;align=center;" vertex="1" parent="_AYD7b4ZwWidKNxs3BEM-78">
          <mxGeometry x="480" y="65" width="30" height="30" as="geometry" />
        </mxCell>
        <mxCell id="_AYD7b4ZwWidKNxs3BEM-83" style="edgeStyle=elbowEdgeStyle;html=1;labelBackgroundColor=none;endArrow=open;endSize=8;strokeColor=#ff0000;fontFamily=Verdana;fontSize=12;align=left;" edge="1" parent="_AYD7b4ZwWidKNxs3BEM-78" source="_AYD7b4ZwWidKNxs3BEM-84" target="_AYD7b4ZwWidKNxs3BEM-81">
          <mxGeometry relative="1" as="geometry" />
        </mxCell>
        <mxCell id="_AYD7b4ZwWidKNxs3BEM-84" value="" style="ellipse;html=1;shape=startState;fillColor=#000000;strokeColor=#ff0000;rounded=1;shadow=0;comic=0;labelBackgroundColor=none;fontFamily=Verdana;fontSize=12;fontColor=#000000;align=center;direction=south;" vertex="1" parent="_AYD7b4ZwWidKNxs3BEM-78">
          <mxGeometry y="65" width="30" height="30" as="geometry" />
        </mxCell>
        <mxCell id="_AYD7b4ZwWidKNxs3BEM-85" style="edgeStyle=elbowEdgeStyle;html=1;labelBackgroundColor=none;endArrow=open;endSize=8;strokeColor=#ff0000;fontFamily=Verdana;fontSize=12;align=left;entryX=0;entryY=0.5;entryDx=0;entryDy=0;" edge="1" parent="_AYD7b4ZwWidKNxs3BEM-78" source="_AYD7b4ZwWidKNxs3BEM-86" target="_AYD7b4ZwWidKNxs3BEM-82">
          <mxGeometry relative="1" as="geometry">
            <mxPoint x="452.5" y="80" as="targetPoint" />
          </mxGeometry>
        </mxCell>
        <mxCell id="_AYD7b4ZwWidKNxs3BEM-86" value="GPIO_SetPin()" style="rounded=1;whiteSpace=wrap;html=1;arcSize=24;fillColor=#ffffc0;strokeColor=#ff0000;shadow=0;comic=0;labelBackgroundColor=none;fontFamily=Verdana;fontSize=12;fontColor=#000000;align=center;" vertex="1" parent="_AYD7b4ZwWidKNxs3BEM-78">
          <mxGeometry x="260" y="50" width="120" height="60" as="geometry" />
        </mxCell>
        <mxCell id="_AYD7b4ZwWidKNxs3BEM-87" value="Lights&lt;br&gt;State&lt;br&gt;Variable" style="ellipse;shape=umlEntity;whiteSpace=wrap;html=1;strokeColor=#FF0000;" vertex="1" parent="_AYD7b4ZwWidKNxs3BEM-78">
          <mxGeometry x="60" y="160" width="65" height="65" as="geometry" />
        </mxCell>
        <mxCell id="_AYD7b4ZwWidKNxs3BEM-88" style="edgeStyle=elbowEdgeStyle;html=1;labelBackgroundColor=none;endArrow=open;endSize=8;strokeColor=#ff0000;fontFamily=Verdana;fontSize=12;align=left;exitX=0.5;exitY=1;exitDx=0;exitDy=0;entryX=0.5;entryY=0;entryDx=0;entryDy=0;elbow=vertical;" edge="1" parent="_AYD7b4ZwWidKNxs3BEM-78" source="_AYD7b4ZwWidKNxs3BEM-81" target="_AYD7b4ZwWidKNxs3BEM-87">
          <mxGeometry relative="1" as="geometry">
            <mxPoint x="120" y="150" as="sourcePoint" />
            <mxPoint x="170" y="150" as="targetPoint" />
            <Array as="points">
              <mxPoint x="100" y="140" />
            </Array>
          </mxGeometry>
        </mxCell>
        <mxCell id="_AYD7b4ZwWidKNxs3BEM-90" value="Fetch" style="edgeLabel;html=1;align=center;verticalAlign=middle;resizable=0;points=[];" vertex="1" connectable="0" parent="_AYD7b4ZwWidKNxs3BEM-88">
          <mxGeometry x="-0.4377" y="1" relative="1" as="geometry">
            <mxPoint as="offset" />
          </mxGeometry>
        </mxCell>
        <mxCell id="_AYD7b4ZwWidKNxs3BEM-138" value="ECU 1" style="swimlane;whiteSpace=wrap;html=1;rounded=1;shadow=0;comic=0;labelBackgroundColor=none;strokeWidth=1;fontFamily=Verdana;fontSize=12;align=center;" vertex="1" parent="1">
          <mxGeometry x="30" y="1190" width="790.01" height="1060" as="geometry">
            <mxRectangle x="10" y="890" width="200" height="30" as="alternateBounds" />
          </mxGeometry>
        </mxCell>
        <mxCell id="_AYD7b4ZwWidKNxs3BEM-140" value="HW_init()" style="rounded=1;whiteSpace=wrap;html=1;arcSize=24;fillColor=#ffffc0;strokeColor=#ff0000;shadow=0;comic=0;labelBackgroundColor=none;fontFamily=Verdana;fontSize=12;fontColor=#000000;align=center;" vertex="1" parent="_AYD7b4ZwWidKNxs3BEM-138">
          <mxGeometry x="375.67" y="85" width="86.67" height="40" as="geometry" />
        </mxCell>
        <mxCell id="_AYD7b4ZwWidKNxs3BEM-142" style="edgeStyle=elbowEdgeStyle;html=1;labelBackgroundColor=none;endArrow=open;endSize=8;strokeColor=#ff0000;fontFamily=Verdana;fontSize=12;align=left;elbow=vertical;exitX=1;exitY=0.5;exitDx=0;exitDy=0;entryX=0.5;entryY=0;entryDx=0;entryDy=0;" edge="1" parent="_AYD7b4ZwWidKNxs3BEM-138" source="_AYD7b4ZwWidKNxs3BEM-143" target="_AYD7b4ZwWidKNxs3BEM-140">
          <mxGeometry relative="1" as="geometry">
            <mxPoint x="414" y="35" as="sourcePoint" />
            <mxPoint x="419" y="75" as="targetPoint" />
            <Array as="points">
              <mxPoint x="414" y="35" />
            </Array>
          </mxGeometry>
        </mxCell>
        <mxCell id="_AYD7b4ZwWidKNxs3BEM-143" value="" style="ellipse;html=1;shape=startState;fillColor=#000000;strokeColor=#ff0000;rounded=1;shadow=0;comic=0;labelBackgroundColor=none;fontFamily=Verdana;fontSize=12;fontColor=#000000;align=center;direction=south;" vertex="1" parent="_AYD7b4ZwWidKNxs3BEM-138">
          <mxGeometry x="404.01" y="35" width="30" height="30" as="geometry" />
        </mxCell>
        <mxCell id="_AYD7b4ZwWidKNxs3BEM-158" value="OS_Schedular()" style="rounded=1;whiteSpace=wrap;html=1;arcSize=24;fillColor=#ffffc0;strokeColor=#ff0000;shadow=0;comic=0;labelBackgroundColor=none;fontFamily=Verdana;fontSize=12;fontColor=#000000;align=center;" vertex="1" parent="_AYD7b4ZwWidKNxs3BEM-138">
          <mxGeometry x="354" y="175" width="130.01" height="40" as="geometry" />
        </mxCell>
        <mxCell id="_AYD7b4ZwWidKNxs3BEM-160" style="edgeStyle=elbowEdgeStyle;html=1;labelBackgroundColor=none;endArrow=open;endSize=8;strokeColor=#ff0000;fontFamily=Verdana;fontSize=12;align=left;elbow=vertical;exitX=0.5;exitY=1;exitDx=0;exitDy=0;entryX=0.5;entryY=0;entryDx=0;entryDy=0;" edge="1" parent="_AYD7b4ZwWidKNxs3BEM-138" source="_AYD7b4ZwWidKNxs3BEM-140" target="_AYD7b4ZwWidKNxs3BEM-158">
          <mxGeometry relative="1" as="geometry">
            <mxPoint x="418.58" y="155" as="sourcePoint" />
            <mxPoint x="434" y="185" as="targetPoint" />
            <Array as="points">
              <mxPoint x="414" y="135" />
            </Array>
          </mxGeometry>
        </mxCell>
        <mxCell id="_AYD7b4ZwWidKNxs3BEM-161" value="Task_Idel()" style="rounded=1;whiteSpace=wrap;html=1;arcSize=24;fillColor=#ffffc0;strokeColor=#ff0000;shadow=0;comic=0;labelBackgroundColor=none;fontFamily=Verdana;fontSize=12;fontColor=#000000;align=center;" vertex="1" parent="_AYD7b4ZwWidKNxs3BEM-138">
          <mxGeometry x="354" y="265" width="130.01" height="40" as="geometry" />
        </mxCell>
        <mxCell id="_AYD7b4ZwWidKNxs3BEM-162" value="Task_SendSpeed()" style="rounded=1;whiteSpace=wrap;html=1;arcSize=24;fillColor=#ffffc0;strokeColor=#ff0000;shadow=0;comic=0;labelBackgroundColor=none;fontFamily=Verdana;fontSize=12;fontColor=#000000;align=center;" vertex="1" parent="_AYD7b4ZwWidKNxs3BEM-138">
          <mxGeometry x="354" y="355" width="130.01" height="40" as="geometry" />
        </mxCell>
        <mxCell id="_AYD7b4ZwWidKNxs3BEM-163" value="Task_SendDoorState()" style="rounded=1;whiteSpace=wrap;html=1;arcSize=24;fillColor=#ffffc0;strokeColor=#ff0000;shadow=0;comic=0;labelBackgroundColor=none;fontFamily=Verdana;fontSize=12;fontColor=#000000;align=center;" vertex="1" parent="_AYD7b4ZwWidKNxs3BEM-138">
          <mxGeometry x="344" y="415" width="150.01" height="40" as="geometry" />
        </mxCell>
        <mxCell id="_AYD7b4ZwWidKNxs3BEM-164" value="Task_SendSwitchState()" style="rounded=1;whiteSpace=wrap;html=1;arcSize=24;fillColor=#ffffc0;strokeColor=#ff0000;shadow=0;comic=0;labelBackgroundColor=none;fontFamily=Verdana;fontSize=12;fontColor=#000000;align=center;" vertex="1" parent="_AYD7b4ZwWidKNxs3BEM-138">
          <mxGeometry x="334" y="475" width="170.01" height="40" as="geometry" />
        </mxCell>
        <mxCell id="_AYD7b4ZwWidKNxs3BEM-172" value="" style="shape=line;html=1;strokeWidth=6;strokeColor=#ff0000;points=[[0,0.5,0,0,0],[0.25,0.5,0,0,0],[0.5,0.5,0,0,0],[0.75,0.5,0,0,0],[1,1,0,0,25]];" vertex="1" parent="_AYD7b4ZwWidKNxs3BEM-138">
          <mxGeometry x="543.9999999999999" y="285" width="110" height="10" as="geometry" />
        </mxCell>
        <mxCell id="_AYD7b4ZwWidKNxs3BEM-174" value="" style="edgeStyle=orthogonalEdgeStyle;rounded=1;orthogonalLoop=1;jettySize=auto;html=1;endSize=8;endArrow=open;endFill=0;strokeColor=#FF0000;exitX=1;exitY=0.5;exitDx=0;exitDy=0;" edge="1" parent="_AYD7b4ZwWidKNxs3BEM-138" source="_AYD7b4ZwWidKNxs3BEM-158" target="_AYD7b4ZwWidKNxs3BEM-172">
          <mxGeometry relative="1" as="geometry">
            <mxPoint x="618.9899999999997" y="195" as="sourcePoint" />
            <mxPoint x="613.9999999999999" y="265" as="targetPoint" />
            <Array as="points">
              <mxPoint x="613.9999999999999" y="195" />
            </Array>
          </mxGeometry>
        </mxCell>
        <mxCell id="_AYD7b4ZwWidKNxs3BEM-185" value="ReadyList NOT empty" style="edgeLabel;html=1;align=center;verticalAlign=middle;resizable=0;points=[];" vertex="1" connectable="0" parent="_AYD7b4ZwWidKNxs3BEM-174">
          <mxGeometry x="-0.6563" relative="1" as="geometry">
            <mxPoint x="24" as="offset" />
          </mxGeometry>
        </mxCell>
        <mxCell id="_AYD7b4ZwWidKNxs3BEM-179" value="" style="edgeStyle=orthogonalEdgeStyle;rounded=1;orthogonalLoop=1;jettySize=auto;html=1;endSize=8;endArrow=open;endFill=0;strokeColor=#FF0000;exitX=0;exitY=0.5;exitDx=0;exitDy=0;entryX=0;entryY=0.75;entryDx=0;entryDy=0;" edge="1" parent="_AYD7b4ZwWidKNxs3BEM-138" source="_AYD7b4ZwWidKNxs3BEM-161" target="_AYD7b4ZwWidKNxs3BEM-158">
          <mxGeometry relative="1" as="geometry">
            <mxPoint x="144" y="455" as="sourcePoint" />
            <mxPoint x="334" y="195" as="targetPoint" />
            <Array as="points">
              <mxPoint x="324" y="285" />
              <mxPoint x="324" y="205" />
            </Array>
          </mxGeometry>
        </mxCell>
        <mxCell id="_AYD7b4ZwWidKNxs3BEM-192" value="OS_Tick" style="edgeLabel;html=1;align=center;verticalAlign=middle;resizable=0;points=[];" vertex="1" connectable="0" parent="_AYD7b4ZwWidKNxs3BEM-179">
          <mxGeometry x="-0.11" y="2" relative="1" as="geometry">
            <mxPoint x="2" y="-7" as="offset" />
          </mxGeometry>
        </mxCell>
        <mxCell id="_AYD7b4ZwWidKNxs3BEM-184" value="" style="edgeStyle=orthogonalEdgeStyle;rounded=1;orthogonalLoop=1;jettySize=auto;html=1;endSize=8;endArrow=open;endFill=0;strokeColor=#FF0000;exitX=0.5;exitY=0.5;exitDx=0;exitDy=0;exitPerimeter=0;entryX=1;entryY=0.5;entryDx=0;entryDy=0;" edge="1" parent="_AYD7b4ZwWidKNxs3BEM-138" source="_AYD7b4ZwWidKNxs3BEM-172" target="_AYD7b4ZwWidKNxs3BEM-163">
          <mxGeometry relative="1" as="geometry">
            <mxPoint x="603.9999999999999" y="325" as="sourcePoint" />
            <mxPoint x="638.9999999999999" y="405" as="targetPoint" />
            <Array as="points">
              <mxPoint x="598.9999999999999" y="435" />
            </Array>
          </mxGeometry>
        </mxCell>
        <mxCell id="_AYD7b4ZwWidKNxs3BEM-193" value="Task Ready" style="edgeLabel;html=1;align=center;verticalAlign=middle;resizable=0;points=[];" vertex="1" connectable="0" parent="_AYD7b4ZwWidKNxs3BEM-184">
          <mxGeometry x="0.611" relative="1" as="geometry">
            <mxPoint as="offset" />
          </mxGeometry>
        </mxCell>
        <mxCell id="_AYD7b4ZwWidKNxs3BEM-186" value="" style="edgeStyle=elbowEdgeStyle;rounded=1;orthogonalLoop=1;jettySize=auto;html=1;endSize=8;endArrow=open;endFill=0;strokeColor=#FF0000;exitX=0.25;exitY=0.5;exitDx=0;exitDy=0;exitPerimeter=0;elbow=vertical;entryX=1;entryY=0.5;entryDx=0;entryDy=0;" edge="1" parent="_AYD7b4ZwWidKNxs3BEM-138" source="_AYD7b4ZwWidKNxs3BEM-172" target="_AYD7b4ZwWidKNxs3BEM-162">
          <mxGeometry relative="1" as="geometry">
            <mxPoint x="613.9999999999999" y="330" as="sourcePoint" />
            <mxPoint x="493.99999999999994" y="355" as="targetPoint" />
            <Array as="points">
              <mxPoint x="553.9999999999999" y="375" />
              <mxPoint x="543.9999999999999" y="355" />
            </Array>
          </mxGeometry>
        </mxCell>
        <mxCell id="_AYD7b4ZwWidKNxs3BEM-189" value="TaskReady" style="edgeLabel;html=1;align=center;verticalAlign=middle;resizable=0;points=[];" vertex="1" connectable="0" parent="_AYD7b4ZwWidKNxs3BEM-186">
          <mxGeometry x="0.1659" y="1" relative="1" as="geometry">
            <mxPoint x="-27" y="-1" as="offset" />
          </mxGeometry>
        </mxCell>
        <mxCell id="_AYD7b4ZwWidKNxs3BEM-187" value="" style="edgeStyle=elbowEdgeStyle;rounded=1;orthogonalLoop=1;jettySize=auto;html=1;endSize=8;endArrow=open;endFill=0;strokeColor=#FF0000;entryX=1;entryY=0.5;entryDx=0;entryDy=0;exitX=0.75;exitY=0.5;exitDx=0;exitDy=0;exitPerimeter=0;" edge="1" parent="_AYD7b4ZwWidKNxs3BEM-138" source="_AYD7b4ZwWidKNxs3BEM-172" target="_AYD7b4ZwWidKNxs3BEM-164">
          <mxGeometry relative="1" as="geometry">
            <mxPoint x="623.9999999999999" y="305" as="sourcePoint" />
            <mxPoint x="666.9999999999999" y="415" as="targetPoint" />
            <Array as="points">
              <mxPoint x="626.9999999999999" y="325" />
              <mxPoint x="643.9999999999999" y="495" />
            </Array>
          </mxGeometry>
        </mxCell>
        <mxCell id="_AYD7b4ZwWidKNxs3BEM-194" value="TaskReady" style="edgeLabel;html=1;align=center;verticalAlign=middle;resizable=0;points=[];" vertex="1" connectable="0" parent="_AYD7b4ZwWidKNxs3BEM-187">
          <mxGeometry x="0.6499" y="-2" relative="1" as="geometry">
            <mxPoint as="offset" />
          </mxGeometry>
        </mxCell>
        <mxCell id="_AYD7b4ZwWidKNxs3BEM-190" value="" style="edgeStyle=elbowEdgeStyle;rounded=1;orthogonalLoop=1;jettySize=auto;html=1;endSize=8;endArrow=open;endFill=0;strokeColor=#FF0000;exitX=0.5;exitY=1;exitDx=0;exitDy=0;elbow=vertical;entryX=0.5;entryY=0;entryDx=0;entryDy=0;" edge="1" parent="_AYD7b4ZwWidKNxs3BEM-138" source="_AYD7b4ZwWidKNxs3BEM-158" target="_AYD7b4ZwWidKNxs3BEM-161">
          <mxGeometry relative="1" as="geometry">
            <mxPoint x="622.0099999999999" y="240" as="sourcePoint" />
            <mxPoint x="464" y="245" as="targetPoint" />
            <Array as="points">
              <mxPoint x="424" y="255" />
            </Array>
          </mxGeometry>
        </mxCell>
        <mxCell id="_AYD7b4ZwWidKNxs3BEM-191" value="ReadyList IS empty" style="edgeLabel;html=1;align=center;verticalAlign=middle;resizable=0;points=[];" vertex="1" connectable="0" parent="_AYD7b4ZwWidKNxs3BEM-190">
          <mxGeometry x="0.1659" y="1" relative="1" as="geometry">
            <mxPoint x="-1" y="-9" as="offset" />
          </mxGeometry>
        </mxCell>
        <mxCell id="_AYD7b4ZwWidKNxs3BEM-206" style="edgeStyle=orthogonalEdgeStyle;rounded=1;orthogonalLoop=1;jettySize=auto;html=1;entryX=0;entryY=0.25;entryDx=0;entryDy=0;endArrow=open;endFill=0;endSize=8;strokeColor=#FF0000;" edge="1" parent="_AYD7b4ZwWidKNxs3BEM-138" source="_AYD7b4ZwWidKNxs3BEM-195" target="_AYD7b4ZwWidKNxs3BEM-158">
          <mxGeometry relative="1" as="geometry">
            <Array as="points">
              <mxPoint x="194" y="545" />
              <mxPoint x="124" y="545" />
              <mxPoint x="124" y="185" />
            </Array>
          </mxGeometry>
        </mxCell>
        <mxCell id="_AYD7b4ZwWidKNxs3BEM-195" value="" style="shape=line;html=1;strokeWidth=6;strokeColor=#ff0000;points=[[0,0.5,0,0,0],[0.25,0.5,0,0,0],[0.5,0.5,0,0,0],[0.75,0.5,0,0,0],[1,1,0,0,25]];" vertex="1" parent="_AYD7b4ZwWidKNxs3BEM-138">
          <mxGeometry x="134" y="515" width="110" height="10" as="geometry" />
        </mxCell>
        <mxCell id="_AYD7b4ZwWidKNxs3BEM-196" value="" style="edgeStyle=elbowEdgeStyle;rounded=1;orthogonalLoop=1;jettySize=auto;html=1;endSize=8;endArrow=open;endFill=0;strokeColor=#FF0000;exitX=0;exitY=0.5;exitDx=0;exitDy=0;elbow=vertical;entryX=0.25;entryY=0.5;entryDx=0;entryDy=0;entryPerimeter=0;" edge="1" parent="_AYD7b4ZwWidKNxs3BEM-138" source="_AYD7b4ZwWidKNxs3BEM-162" target="_AYD7b4ZwWidKNxs3BEM-195">
          <mxGeometry relative="1" as="geometry">
            <mxPoint x="288" y="370" as="sourcePoint" />
            <mxPoint x="160" y="455" as="targetPoint" />
            <Array as="points">
              <mxPoint x="244" y="375" />
              <mxPoint x="304" y="375" />
            </Array>
          </mxGeometry>
        </mxCell>
        <mxCell id="_AYD7b4ZwWidKNxs3BEM-208" value="TaskDelayed(5ms)" style="edgeLabel;html=1;align=center;verticalAlign=middle;resizable=0;points=[];" vertex="1" connectable="0" parent="_AYD7b4ZwWidKNxs3BEM-196">
          <mxGeometry x="-0.5903" relative="1" as="geometry">
            <mxPoint as="offset" />
          </mxGeometry>
        </mxCell>
        <mxCell id="_AYD7b4ZwWidKNxs3BEM-198" value="" style="edgeStyle=elbowEdgeStyle;rounded=1;orthogonalLoop=1;jettySize=auto;html=1;endSize=8;endArrow=open;endFill=0;strokeColor=#FF0000;exitX=0;exitY=0.5;exitDx=0;exitDy=0;elbow=vertical;entryX=0.5;entryY=0.5;entryDx=0;entryDy=0;entryPerimeter=0;" edge="1" parent="_AYD7b4ZwWidKNxs3BEM-138" source="_AYD7b4ZwWidKNxs3BEM-163" target="_AYD7b4ZwWidKNxs3BEM-195">
          <mxGeometry relative="1" as="geometry">
            <mxPoint x="364" y="385" as="sourcePoint" />
            <mxPoint x="192" y="540" as="targetPoint" />
            <Array as="points">
              <mxPoint x="274" y="435" />
              <mxPoint x="314" y="385" />
            </Array>
          </mxGeometry>
        </mxCell>
        <mxCell id="_AYD7b4ZwWidKNxs3BEM-209" value="TaskDelayed(10ms)" style="edgeLabel;html=1;align=center;verticalAlign=middle;resizable=0;points=[];" vertex="1" connectable="0" parent="_AYD7b4ZwWidKNxs3BEM-198">
          <mxGeometry x="-0.5012" y="1" relative="1" as="geometry">
            <mxPoint as="offset" />
          </mxGeometry>
        </mxCell>
        <mxCell id="_AYD7b4ZwWidKNxs3BEM-199" value="" style="edgeStyle=elbowEdgeStyle;rounded=1;orthogonalLoop=1;jettySize=auto;html=1;endSize=8;endArrow=open;endFill=0;strokeColor=#FF0000;exitX=0;exitY=0.5;exitDx=0;exitDy=0;elbow=vertical;entryX=0.75;entryY=0.5;entryDx=0;entryDy=0;entryPerimeter=0;" edge="1" parent="_AYD7b4ZwWidKNxs3BEM-138" source="_AYD7b4ZwWidKNxs3BEM-164" target="_AYD7b4ZwWidKNxs3BEM-195">
          <mxGeometry relative="1" as="geometry">
            <mxPoint x="374" y="395" as="sourcePoint" />
            <mxPoint x="202" y="550" as="targetPoint" />
            <Array as="points">
              <mxPoint x="284" y="495" />
              <mxPoint x="324" y="395" />
            </Array>
          </mxGeometry>
        </mxCell>
        <mxCell id="_AYD7b4ZwWidKNxs3BEM-210" value="TaskDelayed(20ms)" style="edgeLabel;html=1;align=center;verticalAlign=middle;resizable=0;points=[];" vertex="1" connectable="0" parent="_AYD7b4ZwWidKNxs3BEM-199">
          <mxGeometry x="-0.4152" y="-3" relative="1" as="geometry">
            <mxPoint x="-23" as="offset" />
          </mxGeometry>
        </mxCell>
        <mxCell id="_AYD7b4ZwWidKNxs3BEM-123" value="OS_Loop" style="shape=umlFrame;whiteSpace=wrap;html=1;pointerEvents=0;width=80;height=20;" vertex="1" parent="_AYD7b4ZwWidKNxs3BEM-138">
          <mxGeometry x="94" y="135" width="580" height="465" as="geometry" />
        </mxCell>
        <mxCell id="_AYD7b4ZwWidKNxs3BEM-141" value="" style="ellipse;html=1;shape=endState;fillColor=#000000;strokeColor=#ff0000;rounded=1;shadow=0;comic=0;labelBackgroundColor=none;fontFamily=Verdana;fontSize=12;fontColor=#000000;align=center;" vertex="1" parent="_AYD7b4ZwWidKNxs3BEM-138">
          <mxGeometry x="550" y="555" width="30" height="30" as="geometry" />
        </mxCell>
        <mxCell id="_AYD7b4ZwWidKNxs3BEM-212" value="" style="edgeStyle=orthogonalEdgeStyle;rounded=1;orthogonalLoop=1;jettySize=auto;html=1;endSize=8;strokeColor=#FF0000;endArrow=open;endFill=0;" edge="1" parent="_AYD7b4ZwWidKNxs3BEM-138" source="_AYD7b4ZwWidKNxs3BEM-211" target="_AYD7b4ZwWidKNxs3BEM-141">
          <mxGeometry relative="1" as="geometry" />
        </mxCell>
        <mxCell id="_AYD7b4ZwWidKNxs3BEM-272" value="StopSystem" style="edgeLabel;html=1;align=center;verticalAlign=middle;resizable=0;points=[];" vertex="1" connectable="0" parent="_AYD7b4ZwWidKNxs3BEM-212">
          <mxGeometry x="0.0997" y="-1" relative="1" as="geometry">
            <mxPoint as="offset" />
          </mxGeometry>
        </mxCell>
        <mxCell id="_AYD7b4ZwWidKNxs3BEM-211" value="Engine Stop" style="rounded=1;whiteSpace=wrap;html=1;arcSize=24;fillColor=#FFFFC0;strokeColor=#ff0000;shadow=0;comic=0;labelBackgroundColor=none;fontFamily=Verdana;fontSize=12;fontColor=#000000;align=center;" vertex="1" parent="_AYD7b4ZwWidKNxs3BEM-138">
          <mxGeometry x="294" y="550" width="130.01" height="40" as="geometry" />
        </mxCell>
        <mxCell id="_AYD7b4ZwWidKNxs3BEM-215" value="Task_SendSpeed()" style="shape=folder;align=center;verticalAlign=middle;fontStyle=0;tabWidth=120;tabHeight=30;tabPosition=left;html=1;boundedLbl=1;labelInHeader=1;rounded=1;absoluteArcSize=1;arcSize=10;whiteSpace=wrap;" vertex="1" parent="_AYD7b4ZwWidKNxs3BEM-138">
          <mxGeometry x="10" y="620" width="360" height="160" as="geometry" />
        </mxCell>
        <mxCell id="_AYD7b4ZwWidKNxs3BEM-218" value="" style="edgeStyle=orthogonalEdgeStyle;rounded=0;orthogonalLoop=1;jettySize=auto;html=1;" edge="1" parent="_AYD7b4ZwWidKNxs3BEM-138" source="_AYD7b4ZwWidKNxs3BEM-216" target="_AYD7b4ZwWidKNxs3BEM-217">
          <mxGeometry relative="1" as="geometry" />
        </mxCell>
        <mxCell id="_AYD7b4ZwWidKNxs3BEM-216" value="" style="ellipse;html=1;shape=startState;fillColor=#000000;strokeColor=#ff0000;rounded=1;shadow=0;comic=0;labelBackgroundColor=none;fontFamily=Verdana;fontSize=12;fontColor=#000000;align=center;direction=south;" vertex="1" parent="_AYD7b4ZwWidKNxs3BEM-138">
          <mxGeometry x="10" y="667.5" width="30" height="30" as="geometry" />
        </mxCell>
        <mxCell id="_AYD7b4ZwWidKNxs3BEM-220" value="" style="rounded=0;orthogonalLoop=1;jettySize=auto;html=1;" edge="1" parent="_AYD7b4ZwWidKNxs3BEM-138" source="_AYD7b4ZwWidKNxs3BEM-217" target="_AYD7b4ZwWidKNxs3BEM-219">
          <mxGeometry relative="1" as="geometry" />
        </mxCell>
        <mxCell id="_AYD7b4ZwWidKNxs3BEM-221" value="Fetch" style="edgeLabel;html=1;align=center;verticalAlign=middle;resizable=0;points=[];" vertex="1" connectable="0" parent="_AYD7b4ZwWidKNxs3BEM-220">
          <mxGeometry x="-0.0857" relative="1" as="geometry">
            <mxPoint as="offset" />
          </mxGeometry>
        </mxCell>
        <mxCell id="_AYD7b4ZwWidKNxs3BEM-223" value="" style="rounded=0;orthogonalLoop=1;jettySize=auto;html=1;" edge="1" parent="_AYD7b4ZwWidKNxs3BEM-138" source="_AYD7b4ZwWidKNxs3BEM-217" target="_AYD7b4ZwWidKNxs3BEM-222">
          <mxGeometry relative="1" as="geometry" />
        </mxCell>
        <mxCell id="_AYD7b4ZwWidKNxs3BEM-217" value="Fetch_CarState" style="rounded=1;whiteSpace=wrap;html=1;arcSize=24;fillColor=#ffffc0;strokeColor=#ff0000;shadow=0;comic=0;labelBackgroundColor=none;fontFamily=Verdana;fontSize=12;fontColor=#000000;align=center;" vertex="1" parent="_AYD7b4ZwWidKNxs3BEM-138">
          <mxGeometry x="60" y="662.5" width="100" height="40" as="geometry" />
        </mxCell>
        <mxCell id="_AYD7b4ZwWidKNxs3BEM-219" value="&lt;font style=&quot;font-size: 10px;&quot;&gt;Car State&lt;br&gt;Variable&lt;/font&gt;" style="ellipse;shape=umlEntity;whiteSpace=wrap;html=1;strokeColor=#FF0000;" vertex="1" parent="_AYD7b4ZwWidKNxs3BEM-138">
          <mxGeometry x="24" y="727.5" width="50" height="50" as="geometry" />
        </mxCell>
        <mxCell id="_AYD7b4ZwWidKNxs3BEM-225" value="" style="rounded=0;orthogonalLoop=1;jettySize=auto;html=1;" edge="1" parent="_AYD7b4ZwWidKNxs3BEM-138" source="_AYD7b4ZwWidKNxs3BEM-222" target="_AYD7b4ZwWidKNxs3BEM-224">
          <mxGeometry relative="1" as="geometry" />
        </mxCell>
        <mxCell id="_AYD7b4ZwWidKNxs3BEM-244" style="rounded=0;orthogonalLoop=1;jettySize=auto;html=1;entryX=0;entryY=0.5;entryDx=0;entryDy=0;" edge="1" parent="_AYD7b4ZwWidKNxs3BEM-138" source="_AYD7b4ZwWidKNxs3BEM-222" target="_AYD7b4ZwWidKNxs3BEM-226">
          <mxGeometry relative="1" as="geometry" />
        </mxCell>
        <mxCell id="_AYD7b4ZwWidKNxs3BEM-222" value="BCM_SendMsg(CAN)" style="whiteSpace=wrap;html=1;fontFamily=Verdana;fillColor=#ffffc0;strokeColor=#ff0000;fontColor=#000000;rounded=1;arcSize=24;shadow=0;comic=0;labelBackgroundColor=none;" vertex="1" parent="_AYD7b4ZwWidKNxs3BEM-138">
          <mxGeometry x="184.99" y="660" width="128.99" height="45" as="geometry" />
        </mxCell>
        <mxCell id="_AYD7b4ZwWidKNxs3BEM-224" value="CAN_Transciever" style="whiteSpace=wrap;html=1;fontFamily=Verdana;rounded=1;arcSize=24;shadow=0;comic=0;labelBackgroundColor=none;fillColor=#0050ef;fontColor=#ffffff;strokeColor=#001DBC;" vertex="1" parent="_AYD7b4ZwWidKNxs3BEM-138">
          <mxGeometry x="184.99" y="727.5" width="128.99" height="30" as="geometry" />
        </mxCell>
        <mxCell id="_AYD7b4ZwWidKNxs3BEM-226" value="" style="ellipse;html=1;shape=endState;fillColor=#000000;strokeColor=#ff0000;rounded=1;shadow=0;comic=0;labelBackgroundColor=none;fontFamily=Verdana;fontSize=12;fontColor=#000000;align=center;" vertex="1" parent="_AYD7b4ZwWidKNxs3BEM-138">
          <mxGeometry x="330.01" y="667.5" width="30" height="30" as="geometry" />
        </mxCell>
        <mxCell id="_AYD7b4ZwWidKNxs3BEM-245" value="Task_SendDoorState()" style="shape=folder;align=center;verticalAlign=middle;fontStyle=0;tabWidth=142;tabHeight=30;tabPosition=left;html=1;boundedLbl=1;labelInHeader=1;rounded=1;absoluteArcSize=1;arcSize=10;whiteSpace=wrap;" vertex="1" parent="_AYD7b4ZwWidKNxs3BEM-138">
          <mxGeometry x="388.34" y="620" width="360" height="160" as="geometry" />
        </mxCell>
        <mxCell id="_AYD7b4ZwWidKNxs3BEM-247" value="" style="ellipse;html=1;shape=startState;fillColor=#000000;strokeColor=#ff0000;rounded=1;shadow=0;comic=0;labelBackgroundColor=none;fontFamily=Verdana;fontSize=12;fontColor=#000000;align=center;direction=south;" vertex="1" parent="_AYD7b4ZwWidKNxs3BEM-138">
          <mxGeometry x="388.34" y="667.5" width="30" height="30" as="geometry" />
        </mxCell>
        <mxCell id="_AYD7b4ZwWidKNxs3BEM-251" value="Fetch_DoorState" style="rounded=1;whiteSpace=wrap;html=1;arcSize=24;fillColor=#ffffc0;strokeColor=#ff0000;shadow=0;comic=0;labelBackgroundColor=none;fontFamily=Verdana;fontSize=12;fontColor=#000000;align=center;" vertex="1" parent="_AYD7b4ZwWidKNxs3BEM-138">
          <mxGeometry x="438.34" y="662.5" width="111.66" height="40" as="geometry" />
        </mxCell>
        <mxCell id="_AYD7b4ZwWidKNxs3BEM-246" value="" style="edgeStyle=orthogonalEdgeStyle;rounded=0;orthogonalLoop=1;jettySize=auto;html=1;" edge="1" parent="_AYD7b4ZwWidKNxs3BEM-138" source="_AYD7b4ZwWidKNxs3BEM-247" target="_AYD7b4ZwWidKNxs3BEM-251">
          <mxGeometry relative="1" as="geometry" />
        </mxCell>
        <mxCell id="_AYD7b4ZwWidKNxs3BEM-252" value="&lt;font style=&quot;font-size: 10px;&quot;&gt;DoorState&lt;br&gt;Variable&lt;/font&gt;" style="ellipse;shape=umlEntity;whiteSpace=wrap;html=1;strokeColor=#FF0000;" vertex="1" parent="_AYD7b4ZwWidKNxs3BEM-138">
          <mxGeometry x="394.01" y="727.5" width="50" height="50" as="geometry" />
        </mxCell>
        <mxCell id="_AYD7b4ZwWidKNxs3BEM-248" value="" style="rounded=0;orthogonalLoop=1;jettySize=auto;html=1;" edge="1" parent="_AYD7b4ZwWidKNxs3BEM-138" source="_AYD7b4ZwWidKNxs3BEM-251" target="_AYD7b4ZwWidKNxs3BEM-252">
          <mxGeometry relative="1" as="geometry" />
        </mxCell>
        <mxCell id="_AYD7b4ZwWidKNxs3BEM-249" value="Fetch" style="edgeLabel;html=1;align=center;verticalAlign=middle;resizable=0;points=[];" vertex="1" connectable="0" parent="_AYD7b4ZwWidKNxs3BEM-248">
          <mxGeometry x="-0.0857" relative="1" as="geometry">
            <mxPoint as="offset" />
          </mxGeometry>
        </mxCell>
        <mxCell id="_AYD7b4ZwWidKNxs3BEM-255" value="BCM_SendMsg(CAN)" style="whiteSpace=wrap;html=1;fontFamily=Verdana;fillColor=#ffffc0;strokeColor=#ff0000;fontColor=#000000;rounded=1;arcSize=24;shadow=0;comic=0;labelBackgroundColor=none;" vertex="1" parent="_AYD7b4ZwWidKNxs3BEM-138">
          <mxGeometry x="563.3299999999999" y="660" width="128.99" height="45" as="geometry" />
        </mxCell>
        <mxCell id="_AYD7b4ZwWidKNxs3BEM-250" value="" style="rounded=0;orthogonalLoop=1;jettySize=auto;html=1;" edge="1" parent="_AYD7b4ZwWidKNxs3BEM-138" source="_AYD7b4ZwWidKNxs3BEM-251" target="_AYD7b4ZwWidKNxs3BEM-255">
          <mxGeometry relative="1" as="geometry" />
        </mxCell>
        <mxCell id="_AYD7b4ZwWidKNxs3BEM-256" value="CAN_Transciever" style="whiteSpace=wrap;html=1;fontFamily=Verdana;rounded=1;arcSize=24;shadow=0;comic=0;labelBackgroundColor=none;fillColor=#0050ef;fontColor=#ffffff;strokeColor=#001DBC;" vertex="1" parent="_AYD7b4ZwWidKNxs3BEM-138">
          <mxGeometry x="563.3299999999999" y="727.5" width="128.99" height="30" as="geometry" />
        </mxCell>
        <mxCell id="_AYD7b4ZwWidKNxs3BEM-253" value="" style="rounded=0;orthogonalLoop=1;jettySize=auto;html=1;" edge="1" parent="_AYD7b4ZwWidKNxs3BEM-138" source="_AYD7b4ZwWidKNxs3BEM-255" target="_AYD7b4ZwWidKNxs3BEM-256">
          <mxGeometry relative="1" as="geometry" />
        </mxCell>
        <mxCell id="_AYD7b4ZwWidKNxs3BEM-257" value="" style="ellipse;html=1;shape=endState;fillColor=#000000;strokeColor=#ff0000;rounded=1;shadow=0;comic=0;labelBackgroundColor=none;fontFamily=Verdana;fontSize=12;fontColor=#000000;align=center;" vertex="1" parent="_AYD7b4ZwWidKNxs3BEM-138">
          <mxGeometry x="708.3499999999999" y="667.5" width="30" height="30" as="geometry" />
        </mxCell>
        <mxCell id="_AYD7b4ZwWidKNxs3BEM-254" style="rounded=0;orthogonalLoop=1;jettySize=auto;html=1;entryX=0;entryY=0.5;entryDx=0;entryDy=0;" edge="1" parent="_AYD7b4ZwWidKNxs3BEM-138" source="_AYD7b4ZwWidKNxs3BEM-255" target="_AYD7b4ZwWidKNxs3BEM-257">
          <mxGeometry relative="1" as="geometry" />
        </mxCell>
        <mxCell id="_AYD7b4ZwWidKNxs3BEM-259" value="Task_SendSwitchState()" style="shape=folder;align=center;verticalAlign=middle;fontStyle=0;tabWidth=150;tabHeight=30;tabPosition=left;html=1;boundedLbl=1;labelInHeader=1;rounded=1;absoluteArcSize=1;arcSize=10;whiteSpace=wrap;" vertex="1" parent="_AYD7b4ZwWidKNxs3BEM-138">
          <mxGeometry x="10" y="790" width="360" height="160" as="geometry" />
        </mxCell>
        <mxCell id="_AYD7b4ZwWidKNxs3BEM-261" value="" style="ellipse;html=1;shape=startState;fillColor=#000000;strokeColor=#ff0000;rounded=1;shadow=0;comic=0;labelBackgroundColor=none;fontFamily=Verdana;fontSize=12;fontColor=#000000;align=center;direction=south;" vertex="1" parent="_AYD7b4ZwWidKNxs3BEM-138">
          <mxGeometry x="10" y="837.5" width="30" height="30" as="geometry" />
        </mxCell>
        <mxCell id="_AYD7b4ZwWidKNxs3BEM-265" value="Fetch_SwitchState" style="rounded=1;whiteSpace=wrap;html=1;arcSize=24;fillColor=#ffffc0;strokeColor=#ff0000;shadow=0;comic=0;labelBackgroundColor=none;fontFamily=Verdana;fontSize=12;fontColor=#000000;align=center;" vertex="1" parent="_AYD7b4ZwWidKNxs3BEM-138">
          <mxGeometry x="50" y="832.5" width="120" height="40" as="geometry" />
        </mxCell>
        <mxCell id="_AYD7b4ZwWidKNxs3BEM-260" value="" style="rounded=0;orthogonalLoop=1;jettySize=auto;html=1;" edge="1" parent="_AYD7b4ZwWidKNxs3BEM-138" source="_AYD7b4ZwWidKNxs3BEM-261" target="_AYD7b4ZwWidKNxs3BEM-265">
          <mxGeometry relative="1" as="geometry" />
        </mxCell>
        <mxCell id="_AYD7b4ZwWidKNxs3BEM-266" value="&lt;font style=&quot;font-size: 10px;&quot;&gt;Switch State&lt;br&gt;Variable&lt;/font&gt;" style="ellipse;shape=umlEntity;whiteSpace=wrap;html=1;strokeColor=#FF0000;" vertex="1" parent="_AYD7b4ZwWidKNxs3BEM-138">
          <mxGeometry x="15" y="897.5" width="50" height="50" as="geometry" />
        </mxCell>
        <mxCell id="_AYD7b4ZwWidKNxs3BEM-262" value="" style="rounded=0;orthogonalLoop=1;jettySize=auto;html=1;" edge="1" parent="_AYD7b4ZwWidKNxs3BEM-138" source="_AYD7b4ZwWidKNxs3BEM-265" target="_AYD7b4ZwWidKNxs3BEM-266">
          <mxGeometry relative="1" as="geometry" />
        </mxCell>
        <mxCell id="_AYD7b4ZwWidKNxs3BEM-263" value="Fetch" style="edgeLabel;html=1;align=center;verticalAlign=middle;resizable=0;points=[];" vertex="1" connectable="0" parent="_AYD7b4ZwWidKNxs3BEM-262">
          <mxGeometry x="-0.0857" relative="1" as="geometry">
            <mxPoint as="offset" />
          </mxGeometry>
        </mxCell>
        <mxCell id="_AYD7b4ZwWidKNxs3BEM-269" value="BCM_SendMsg(CAN)" style="whiteSpace=wrap;html=1;fontFamily=Verdana;fillColor=#ffffc0;strokeColor=#ff0000;fontColor=#000000;rounded=1;arcSize=24;shadow=0;comic=0;labelBackgroundColor=none;" vertex="1" parent="_AYD7b4ZwWidKNxs3BEM-138">
          <mxGeometry x="184.99" y="830" width="128.99" height="45" as="geometry" />
        </mxCell>
        <mxCell id="_AYD7b4ZwWidKNxs3BEM-264" value="" style="rounded=0;orthogonalLoop=1;jettySize=auto;html=1;" edge="1" parent="_AYD7b4ZwWidKNxs3BEM-138" source="_AYD7b4ZwWidKNxs3BEM-265" target="_AYD7b4ZwWidKNxs3BEM-269">
          <mxGeometry relative="1" as="geometry" />
        </mxCell>
        <mxCell id="_AYD7b4ZwWidKNxs3BEM-270" value="CAN_Transciever" style="whiteSpace=wrap;html=1;fontFamily=Verdana;rounded=1;arcSize=24;shadow=0;comic=0;labelBackgroundColor=none;fillColor=#0050ef;fontColor=#ffffff;strokeColor=#001DBC;" vertex="1" parent="_AYD7b4ZwWidKNxs3BEM-138">
          <mxGeometry x="184.99" y="897.5" width="128.99" height="30" as="geometry" />
        </mxCell>
        <mxCell id="_AYD7b4ZwWidKNxs3BEM-267" value="" style="rounded=0;orthogonalLoop=1;jettySize=auto;html=1;" edge="1" parent="_AYD7b4ZwWidKNxs3BEM-138" source="_AYD7b4ZwWidKNxs3BEM-269" target="_AYD7b4ZwWidKNxs3BEM-270">
          <mxGeometry relative="1" as="geometry" />
        </mxCell>
        <mxCell id="_AYD7b4ZwWidKNxs3BEM-271" value="" style="ellipse;html=1;shape=endState;fillColor=#000000;strokeColor=#ff0000;rounded=1;shadow=0;comic=0;labelBackgroundColor=none;fontFamily=Verdana;fontSize=12;fontColor=#000000;align=center;" vertex="1" parent="_AYD7b4ZwWidKNxs3BEM-138">
          <mxGeometry x="330.01" y="837.5" width="30" height="30" as="geometry" />
        </mxCell>
        <mxCell id="_AYD7b4ZwWidKNxs3BEM-268" style="rounded=0;orthogonalLoop=1;jettySize=auto;html=1;entryX=0;entryY=0.5;entryDx=0;entryDy=0;" edge="1" parent="_AYD7b4ZwWidKNxs3BEM-138" source="_AYD7b4ZwWidKNxs3BEM-269" target="_AYD7b4ZwWidKNxs3BEM-271">
          <mxGeometry relative="1" as="geometry" />
        </mxCell>
      </root>
    </mxGraphModel>
  </diagram>
</mxfile>
